<svg version="1.2" xmlns="http://www.w3.org/2000/svg" viewBox="0 0 500 179" width="500" height="179"><style>.a{fill:#fff}</style><path class="a" d="m130.6 25.1c0.7 4.7-0.7 9.6-4.1 13.3l-32.2 34.7-11 11.9c-4.2-11.1-4.7-28.9 1.4-48.9l0.2-0.2 18-19.4c6.1-6.5 16.2-6.9 22.8-0.9 2.7 2.6 4.4 6 4.9 9.5z"/><path class="a" d="m94.7 113.7l26.9 24.9c6.5 6 6.9 16.2 0.9 22.8-2.6 2.8-6 4.5-9.5 5-4.7 0.7-9.6-0.7-13.3-4.1l-60.5-56.1c-4.7-4.3-6.2-10.8-4.4-16.5 0.7-2.4 1.9-4.8 3.7-6.7l37.9-41c-6.1 19.9-5.6 37.8-1.4 48.9 0.2 0.6 0.5 1.2 0.7 1.8 1.1 2.6 6.3 8.6 8.6 10.8"/><path class="a" d="m144.5 152.9c-0.7-4.7 0.7-9.6 4.1-13.3l32.2-34.7 11-11.8c4.2 11.1 4.7 28.9-1.4 48.9l-0.2 0.2-18 19.4c-6.1 6.5-16.2 6.9-22.8 0.9-2.7-2.7-4.4-6.1-4.9-9.6z"/><path class="a" d="m180.4 64.3l-26.9-24.9c-6.5-6-6.9-16.2-0.9-22.8 2.6-2.8 6-4.5 9.5-5 4.7-0.7 9.6 0.7 13.3 4.1l60.5 56.1c4.7 4.3 6.2 10.8 4.4 16.5-0.7 2.4-1.9 4.8-3.7 6.7l-37.9 41c6.1-19.9 5.6-37.8 1.4-48.9-0.2-0.6-0.5-1.2-0.7-1.8-1.1-2.6-6.3-8.6-8.6-10.8"/><path class="a" d="m256.1 111.4h56.3c4.2 0 6-2.1 6-4.9 0-3.2-2.1-4.6-6.3-4.6h-25.6c-18.5 0-32.5-9.4-32.5-30.8 0-22.7 18.5-31.1 34.3-31.1h58.4v26.2h-53.5c-4.2 0-5.6 2.1-5.6 4.6 0 2.4 1.7 4.9 5.6 4.9h21.7c23.4 0 36.7 11.9 36.7 30.1 0 18.2-14 31.8-36.4 31.8h-59.8v-26.2z"/><path class="a" d="m360.8 40h34l18.2 71.8h1.4l18.2-71.8h33.9l-29.4 98h-46.2z"/></svg>